<?xml version="1.0" standalone="no"?>
<!DOCTYPE svg PUBLIC "-//W3C//DTD SVG 20010904//EN"
 "http://www.w3.org/TR/2001/REC-SVG-20010904/DTD/svg10.dtd">
<svg version="1.0" xmlns="http://www.w3.org/2000/svg"
 width="400.000000pt" height="400.000000pt" viewBox="0 0 400.000000 400.000000"
 preserveAspectRatio="xMidYMid meet">
<metadata>
Created by potrace 1.14, written by Peter Selinger 2001-2017
</metadata>
<g transform="translate(0.000000,400.000000) scale(0.100000,-0.100000)"
fill="#000000" stroke="none">
<path d="M1285 3333 c-418 -228 -772 -420 -787 -426 l-28 -11 0 -206 c0 -236
-8 -1000 -14 -1360 l-4 -245 346 -202 c191 -110 538 -313 772 -450 l425 -249
120 66 c66 37 420 230 787 429 l666 363 4 56 c5 61 12 938 13 1447 l0 309
-765 448 c-421 246 -767 448 -770 447 -3 0 -347 -187 -765 -416z"/>
</g>
</svg>
